<svg xmlns="http://www.w3.org/2000/svg" viewBox="0 0 1600 1200" fill="none">
  <defs>
    <linearGradient id="osea6" x1="0" y1="0" x2="0" y2="1">
      <stop offset="0%" stop-color="#8EE1F5"/>
      <stop offset="52%" stop-color="#50B9E0"/>
      <stop offset="100%" stop-color="#1C739C"/>
    </linearGradient>
  </defs>
  <rect width="1600" height="1200" fill="url(#osea6)"/>
  <path d="M0 874C218 818 430 828 642 886C842 940 1050 946 1272 888C1428 848 1540 846 1600 852V1200H0V874Z" fill="#F3D9A4"/>
  <g fill="#87E0F7" fill-opacity="0.82">
    <circle cx="400" cy="182" r="18"/>
    <circle cx="412" cy="128" r="10"/>
    <circle cx="1144" cy="244" r="16"/>
    <circle cx="1228" cy="190" r="10"/>
  </g>
  <path d="M430 528C520 442 664 442 754 528C664 614 520 614 430 528Z" fill="#FFD56A"/>
  <circle cx="548" cy="510" r="12" fill="#1B2A32"/>
  <path d="M754 528L846 468V588L754 528Z" fill="#FF8F6A"/>
  <path d="M1082 428C1140 358 1238 358 1296 428C1238 498 1140 498 1082 428Z" fill="#FF8FA7"/>
  <circle cx="1162" cy="414" r="10" fill="#1B2A32"/>
  <path d="M1296 428L1360 384V472L1296 428Z" fill="#FFD56A"/>
  <g fill="#4D8E5E">
    <path d="M176 986C176 892 216 812 246 736C276 812 316 892 316 986"/>
    <path d="M1320 986C1320 892 1360 806 1390 726C1420 806 1460 892 1460 986"/>
    <path d="M1188 986C1188 916 1216 848 1240 792C1262 848 1290 916 1290 986"/>
  </g>
  <path d="M786 934L826 826L866 934L980 940L890 1006L920 1110L826 1050L732 1110L762 1006L672 940L786 934Z" fill="#FFB857"/>
  <g fill="#FF8F6A">
    <circle cx="310" cy="962" r="34"/>
    <circle cx="1010" cy="998" r="28"/>
  </g>
</svg>
