<svg xmlns="http://www.w3.org/2000/svg" viewBox="0 0 1600 1200" fill="none">
  <defs>
    <linearGradient id="sky6" x1="0" y1="0" x2="0" y2="1">
      <stop offset="0%" stop-color="#FFF8D9"/>
      <stop offset="55%" stop-color="#FFD9C7"/>
      <stop offset="100%" stop-color="#FFC7B2"/>
    </linearGradient>
  </defs>
  <rect width="1600" height="1200" fill="url(#sky6)"/>
  <circle cx="1244" cy="196" r="118" fill="#FFD76A"/>
  <ellipse cx="360" cy="230" rx="180" ry="72" fill="#FFFDF5" fill-opacity="0.9"/>
  <ellipse cx="620" cy="170" rx="140" ry="58" fill="#FFFDF5" fill-opacity="0.82"/>
  <path d="M0 760C170 680 350 690 520 760C710 838 910 846 1120 756C1290 684 1440 682 1600 738V1200H0V760Z" fill="#A8D38B"/>
  <path d="M0 848C180 770 400 790 560 860C730 934 940 944 1160 850C1330 778 1470 784 1600 832V1200H0V848Z" fill="#79B96E"/>
  <g>
    <ellipse cx="812" cy="700" rx="156" ry="176" fill="#FFF8F0"/>
    <ellipse cx="748" cy="520" rx="54" ry="152" fill="#FFF8F0" transform="rotate(-8 748 520)"/>
    <ellipse cx="878" cy="516" rx="54" ry="152" fill="#FFF8F0" transform="rotate(8 878 516)"/>
    <ellipse cx="748" cy="516" rx="24" ry="92" fill="#FFC9D8" transform="rotate(-8 748 516)"/>
    <ellipse cx="878" cy="512" rx="24" ry="92" fill="#FFC9D8" transform="rotate(8 878 512)"/>
    <circle cx="760" cy="682" r="12" fill="#1D2629"/>
    <circle cx="868" cy="682" r="12" fill="#1D2629"/>
    <ellipse cx="814" cy="738" rx="18" ry="12" fill="#F29A8D"/>
    <path d="M778 770C796 786 832 786 850 770" stroke="#1D2629" stroke-width="10" stroke-linecap="round"/>
  </g>
  <g fill="#F26B8A">
    <circle cx="228" cy="896" r="32"/>
    <circle cx="292" cy="860" r="28"/>
    <circle cx="1392" cy="898" r="34"/>
    <circle cx="1312" cy="864" r="26"/>
  </g>
  <g fill="#FFD56A">
    <circle cx="700" cy="930" r="24"/>
    <circle cx="932" cy="910" r="20"/>
  </g>
  <g stroke="#FFFFFF" stroke-width="14" stroke-linecap="round">
    <path d="M176 1004V920"/>
    <path d="M1418 1008V924"/>
    <path d="M548 1012V944"/>
    <path d="M1018 988V922"/>
  </g>
</svg>
