<svg xmlns="http://www.w3.org/2000/svg" viewBox="0 0 1600 1200" fill="none">
  <defs>
    <linearGradient id="gsky2" x1="0" y1="0" x2="0" y2="1">
      <stop offset="0%" stop-color="#DDF6EA"/>
      <stop offset="100%" stop-color="#F8E8C9"/>
    </linearGradient>
  </defs>
  <rect width="1600" height="1200" fill="url(#gsky2)"/>
  <rect x="108" y="120" width="1384" height="900" rx="72" fill="#FFFDF7"/>
  <path d="M108 788C242 706 414 702 592 780C742 844 918 844 1078 782C1248 716 1376 720 1492 768V1020H108V788Z" fill="#8BC785"/>
  <path d="M108 846C258 780 432 790 598 852C740 906 932 910 1108 850C1264 798 1386 802 1492 840V1020H108V846Z" fill="#5FA36B"/>
  <rect x="252" y="360" width="120" height="280" rx="24" fill="#C6865C"/>
  <path d="M188 332C188 246 256 188 344 188C434 188 504 246 504 332V420H188V332Z" fill="#4D8E5E"/>
  <rect x="1040" y="302" width="180" height="240" rx="24" fill="#EFA35C"/>
  <circle cx="1130" cy="422" r="54" fill="#FFF6E0"/>
  <path d="M1220 386C1264 312 1368 312 1412 386" stroke="#FFB857" stroke-width="16" stroke-linecap="round"/>
  <g fill="#F26B8A">
    <circle cx="420" cy="820" r="32"/><circle cx="490" cy="790" r="28"/><circle cx="560" cy="828" r="30"/>
    <circle cx="1190" cy="842" r="34"/><circle cx="1262" cy="804" r="28"/><circle cx="1324" cy="842" r="30"/>
  </g>
  <g fill="#FFDE66">
    <circle cx="716" cy="870" r="24"/><circle cx="776" cy="834" r="22"/><circle cx="836" cy="870" r="24"/>
  </g>
  <circle cx="754" cy="328" r="24" fill="#7FD0F6"/>
  <circle cx="778" cy="290" r="18" fill="#7FD0F6"/>
  <circle cx="814" cy="324" r="22" fill="#7FD0F6"/>
</svg>
